PathFileType	4	(X/Y/Z)	Kaydara	
DataRate	CameraRate	NumFrames	NumMarkers	Units	OrigDataRate	OrigDataStartFrame	OrigNumFrames	
60.00	60.00	4	74	mm	60.00	631	134	
Frame#	Time	Z_lasi			Z_rasi			Z_rpsi			Z_lpsi			Z_fneck			Z_bneck			Z_fhead			Z_lhead			Z_rshld			Z_relbtop			Z_relbext			Z_relblow			Z_rwrext			Z_rwrtop			Z_rwrlow			Z_lshld			Z_lelbext			Z_lelblow			Z_lelbtop			Z_lwrext			Z_lwrtop			Z_lwrlow			Z_rtopleg			Z_rkneefr			Z_rkneebk			Z_rkneeis			Z_lkneefr			Z_lknssbk			Z_lkneeis			Z_rankfr			Z_rankis			Z_rankbk			Z_lankfr			Z_lankbk			Z_lankis			Z_rhead			Z_ltopleg			N_rpsi			N_lpsi			N_fneck			N_bneck			N_fhead			N_rhead			N_lhead			N_rshld			N_relbtop			N_relbext			N_relblow			N_rwrext			N_rwrtop			N_rwrlow			N_lshld			N_lelbext			N_lelblow			N_lelbtop			N_lwrext			N_lwrtop			N_lwrlow			N_rtopleg			N_ltopleg			N_rkneefr			N_rkneebk			N_rkneeis			N_lkneefr			N_lknssbk			N_lkneeis			N_rankfr			N_rankis			N_rankbk			N_lankfr			N_lankbk			N_lankis			N_lasi			N_rasi			
		X1	Y1	Z1	X2	Y2	Z2	X3	Y3	Z3	X4	Y4	Z4	X5	Y5	Z5	X6	Y6	Z6	X7	Y7	Z7	X8	Y8	Z8	X9	Y9	Z9	X10	Y10	Z10	X11	Y11	Z11	X12	Y12	Z12	X13	Y13	Z13	X14	Y14	Z14	X15	Y15	Z15	X16	Y16	Z16	X17	Y17	Z17	X18	Y18	Z18	X19	Y19	Z19	X20	Y20	Z20	X21	Y21	Z21	X22	Y22	Z22	X23	Y23	Z23	X24	Y24	Z24	X25	Y25	Z25	X26	Y26	Z26	X27	Y27	Z27	X28	Y28	Z28	X29	Y29	Z29	X30	Y30	Z30	X31	Y31	Z31	X32	Y32	Z32	X33	Y33	Z33	X34	Y34	Z34	X35	Y35	Z35	X36	Y36	Z36	X37	Y37	Z37	X38	Y38	Z38	X39	Y39	Z39	X40	Y40	Z40	X41	Y41	Z41	X42	Y42	Z42	X43	Y43	Z43	X44	Y44	Z44	X45	Y45	Z45	X46	Y46	Z46	X47	Y47	Z47	X48	Y48	Z48	X49	Y49	Z49	X50	Y50	Z50	X51	Y51	Z51	X52	Y52	Z52	X53	Y53	Z53	X54	Y54	Z54	X55	Y55	Z55	X56	Y56	Z56	X57	Y57	Z57	X58	Y58	Z58	X59	Y59	Z59	X60	Y60	Z60	X61	Y61	Z61	X62	Y62	Z62	X63	Y63	Z63	X64	Y64	Z64	X65	Y65	Z65	X66	Y66	Z66	X67	Y67	Z67	X68	Y68	Z68	X69	Y69	Z69	X70	Y70	Z70	X71	Y71	Z71	X72	Y72	Z72	X73	Y73	Z73	X74	Y74	Z74	

1	10.500	-1455.50018	965.81505	489.90604	-1337.62695	994.71199	698.52402	-1524.19800	1043.66394	763.89442	-1616.12000	1028.12622	593.17684	-1408.06061	1448.51700	529.77985	-1505.13870	1505.18066	577.11697	-1313.71490	1624.50653	522.61055	-1483.30353	1626.87241	615.55695	-1319.16504	1422.36252	728.08434	-1127.30026	1253.54248	741.44836	-1148.31787	1183.37624	735.43648	-1131.06194	1238.81950	665.38971	-906.07285	1174.25087	606.37768	-882.10075	1200.29114	636.03344	-891.53053	1241.56029	615.00259	-1601.43417	1382.29202	423.29372	-1583.09067	1066.08322	438.50182	-1588.51486	1102.38144	351.26850	-1645.31754	1066.87325	399.03580	-1563.58292	876.14037	300.93971	-1532.55478	897.81029	281.54783	-1501.24680	892.63191	315.46824	-1369.23950	896.61942	798.17680	-1229.23515	444.75960	715.52673	-1276.63567	455.48637	789.82018	-1323.44955	429.78065	684.75769	-1545.87845	402.59762	553.18554	-1623.37158	438.18047	550.21313	-1566.17554	434.18434	657.56271	-1175.24834	191.60309	739.02283	-1246.21086	163.84941	711.98372	-1232.19238	162.44961	781.30920	-1651.71951	162.91227	565.51220	-1644.98856	156.55183	631.03539	-1579.06219	161.91847	596.63372	-1497.07733	1614.05945	486.57467	-1332.85736	926.04874	533.74386	454.99004	1054.69261	366.83788	409.31702	1057.88727	604.49814	260.04177	1483.57758	415.10025	379.33525	1548.33755	390.84885	159.85660	1708.62076	369.96189	311.45348	1670.29953	291.23713	308.67201	1704.88373	445.81272	355.42248	1451.41525	217.37724	134.34937	1271.67839	165.92539	145.98205	1235.19173	238.93240	121.74790	1326.98578	216.56992	-100.33298	1325.15289	298.51992	-88.59029	1374.93454	290.78182	-64.02960	1384.93240	327.49653	317.32220	1492.19238	643.84499	374.46632	1174.04388	728.31902	294.21934	1240.57327	667.05086	299.06982	1228.93837	756.76682	157.40013	1209.51370	578.40977	149.29443	1261.78558	588.19660	188.78845	1275.05257	563.75301	368.45890	887.66190	266.46606	256.72518	890.75066	664.83353	296.04752	445.64812	319.66412	407.38060	485.05482	334.14749	342.65041	456.46198	425.79372	117.97353	444.68182	586.79630	215.49713	469.74060	545.02533	181.75167	492.12009	659.40102	355.10132	149.48996	337.98222	380.03357	151.85955	406.26617	422.45407	147.89267	340.68981	249.46060	160.33007	680.28862	329.41734	176.05871	633.05824	259.94532	157.42800	608.33961	200.31748	1006.03462	570.72361	213.73581	989.11095	342.36938 
2	10.517	-1446.73599	965.15945	489.82052	-1328.13263	993.06580	698.37067	-1514.42444	1041.89758	764.77036	-1606.94778	1027.25304	594.40300	-1398.04047	1447.84180	532.95525	-1494.91425	1504.54987	580.96027	-1302.99362	1623.36838	526.82381	-1472.49420	1625.94330	619.84932	-1308.65662	1420.78857	730.31258	-1115.59372	1254.10843	740.84312	-1135.78918	1183.83728	733.67706	-1119.29703	1240.43701	664.50951	-893.75092	1177.88895	604.11213	-869.92325	1203.59756	633.50506	-879.69452	1245.24551	613.46821	-1592.47040	1382.81219	426.94195	-1578.14926	1066.08383	442.60494	-1583.36304	1102.29919	355.31982	-1640.48447	1067.95387	403.49857	-1563.69019	875.10872	305.70679	-1532.02347	895.90714	286.15017	-1500.95306	890.20370	320.10426	-1359.55231	894.85855	797.78275	-1220.45639	443.31566	714.51263	-1267.80655	453.58063	788.74443	-1314.55765	428.16097	683.57857	-1539.84695	402.37801	551.51909	-1617.23022	438.63098	548.36048	-1559.52713	434.00105	655.21858	-1165.50072	190.41935	737.44682	-1236.20018	162.38567	710.33691	-1222.41844	160.79540	779.43741	-1648.97919	162.65285	564.91791	-1641.98593	157.25363	629.97925	-1576.52786	161.50074	595.84419	-1486.50970	1613.77945	490.87852	-1330.61539	926.10748	534.95453	453.09250	1055.04257	364.84673	408.17059	1058.43857	602.74750	255.33503	1482.67807	411.69151	373.55824	1548.44391	386.59939	152.48296	1706.40045	367.16709	304.10501	1669.73572	287.47883	301.69109	1704.18961	442.14211	349.15573	1449.99146	213.29819	130.15193	1267.14050	164.01897	143.81212	1230.34561	236.60458	116.65106	1321.85226	214.56310	-106.28664	1312.08969	296.87235	-96.24080	1362.45178	289.59818	-72.18446	1372.72369	326.89789	313.78387	1493.81653	640.14969	375.66601	1176.40930	726.94778	295.31292	1242.36305	665.44281	300.05728	1230.15244	754.92195	156.74808	1208.95340	578.05389	148.36377	1261.20163	587.58705	188.47773	1274.54063	562.61494	367.08183	887.27203	265.96624	254.07394	890.58937	662.74956	295.55395	445.42427	319.68237	406.77258	484.93370	334.21368	341.87042	456.55804	425.86826	109.46751	447.01435	576.27434	208.40269	471.20941	537.02900	172.87310	492.43996	650.90820	354.66347	149.36026	338.34450	379.55204	151.82777	406.48125	422.13192	147.87724	340.93147	235.58704	159.56930	666.77704	316.65201	174.83204	621.27495	247.53496	156.88044	595.49969	199.08430	1006.04462	569.42829	211.90733	988.68973	341.27903 
3	10.533	-1437.96127	964.32655	490.29476	-1318.16971	991.46881	698.48450	-1504.09607	1039.94377	765.80734	-1597.13684	1026.27289	595.66380	-1387.59064	1447.03598	536.77689	-1484.27277	1503.80875	585.26390	-1291.91666	1622.10129	531.25313	-1461.42151	1625.09430	624.50661	-1297.75177	1419.22989	732.89612	-1103.24608	1254.30183	740.36850	-1123.09013	1184.06631	732.40166	-1107.50832	1241.52542	663.88206	-881.72417	1180.62866	602.12288	-858.00110	1206.03447	631.73382	-867.79465	1247.78252	612.08237	-1583.58856	1383.40851	430.67177	-1572.93472	1066.03745	447.38300	-1577.93304	1101.87431	359.74766	-1635.36804	1068.97575	408.48335	-1563.75320	874.14696	311.04334	-1531.76559	894.19418	291.30121	-1500.59448	887.72293	325.22758	-1349.39529	893.13705	797.63176	-1211.38779	441.43696	713.07625	-1258.64716	451.57337	787.42111	-1305.49011	426.62804	682.15858	-1533.27835	402.35413	549.74361	-1610.57236	439.14932	546.51756	-1553.00842	434.17984	653.47260	-1157.39594	188.07154	735.46600	-1228.13438	160.41746	707.85896	-1214.40102	158.65230	777.35008	-1647.32941	164.41137	563.42098	-1639.88190	158.20242	629.67941	-1573.51944	161.29856	594.92771	-1475.58075	1613.56781	495.55092	-1328.37341	926.16623	536.16524	451.20564	1055.28160	362.71420	406.81103	1058.47885	600.25208	249.72063	1481.68259	408.77663	367.36294	1548.34030	382.05460	144.74331	1704.34021	364.39507	296.44863	1668.86658	283.82689	294.69187	1703.48663	438.28701	341.93398	1448.32031	209.40989	125.33216	1262.10640	162.80804	140.17878	1225.54192	235.08869	110.41069	1316.25977	213.09603	-112.72621	1297.85873	295.41544	-104.52394	1348.74130	288.96593	-81.07748	1359.77524	326.72775	311.39288	1494.05502	636.36467	376.80679	1178.70529	725.41374	295.97389	1244.72954	664.10736	300.23844	1232.58965	753.78510	155.80036	1208.01285	578.27763	146.94594	1260.26474	587.60735	186.36124	1274.04633	562.09473	365.57396	886.97853	265.17843	251.64890	890.86533	660.89836	294.78270	445.17872	319.47498	405.81287	484.85043	334.18961	341.04481	456.50684	425.64297	101.12020	449.61288	566.93523	200.29802	472.47124	528.03848	164.99495	492.41611	642.24442	354.11274	149.18393	338.68736	378.98651	151.73095	406.79539	421.54839	147.78159	341.34144	221.17971	158.08930	653.64235	302.91166	172.69604	609.09718	233.76047	156.75452	582.91210	197.84948	1005.79620	568.28068	209.71699	988.19656	340.50060 
4	10.550	-1427.91382	963.83278	490.90153	-1307.72934	989.92210	698.98590	-1493.48022	1037.97112	766.94511	-1586.58691	1025.10040	596.86474	-1376.94717	1446.21063	540.67032	-1473.36517	1502.97958	589.88464	-1280.52887	1620.85342	536.19949	-1449.90585	1624.20990	629.70802	-1286.68869	1417.44263	736.24847	-1091.21445	1254.18610	740.53230	-1110.62210	1183.95714	731.81244	-1095.73578	1242.05757	663.83499	-869.68727	1182.40067	600.39330	-845.98976	1207.73941	630.16129	-855.94719	1249.67789	610.88074	-1574.06906	1383.82736	434.97375	-1567.25845	1065.91049	452.51812	-1572.11258	1101.49704	364.77528	-1629.80057	1070.00374	414.02397	-1563.65677	873.15849	316.85307	-1531.22818	892.28386	296.93863	-1500.05783	885.25978	330.79742	-1338.59833	891.32515	797.63367	-1202.02438	439.00181	711.24107	-1249.05510	449.43310	785.74570	-1296.37573	425.12802	680.53268	-1526.33591	402.26078	548.14430	-1603.26553	439.60983	544.71725	-1545.68237	434.17053	651.67358	-1150.68069	185.03153	732.96410	-1221.92146	158.16530	705.58220	-1207.84409	155.89380	774.91531	-1644.35349	164.96111	562.50870	-1637.12082	159.12338	629.01546	-1570.29770	160.96279	594.05148	-1464.25262	1613.22067	500.66090	-1326.13144	926.22482	537.37602	449.19170	1055.46585	360.66231	405.40100	1058.49403	598.64639	243.70178	1480.47211	405.96680	360.49309	1547.96539	378.26416	136.99282	1702.24686	361.23295	288.67329	1667.63443	280.33096	287.02219	1702.61536	434.92794	333.87413	1446.55228	205.91204	119.89440	1256.68144	162.23179	138.83407	1220.39604	232.79882	104.07732	1310.35736	212.40553	-119.38114	1283.33359	294.85729	-113.19159	1334.41269	288.74407	-90.29174	1346.20544	326.75766	307.61677	1494.88022	632.90665	377.62390	1181.09512	724.43817	296.82196	1246.36719	662.94327	301.11748	1233.47496	752.43256	154.63688	1207.00020	578.87566	145.46506	1258.98506	587.98748	183.68155	1273.23029	561.55544	363.91811	886.75323	264.48729	249.19298	890.78545	659.13788	293.54729	444.80164	319.22871	404.60258	484.64054	334.01276	339.10065	456.31599	424.53163	93.21098	452.04300	558.34038	192.54770	473.13843	519.35219	157.78704	492.29042	634.03858	353.65406	148.92083	338.86341	378.46474	151.62173	407.08878	421.02859	147.67003	341.66870	205.76374	156.55890	640.19211	287.96343	169.66633	596.40461	218.10699	155.74112	569.95323	196.83046	1005.40855	567.22542	207.42496	987.69455	339.59133 
